<svg width="162" height="162" viewBox="0 0 162 162" fill="none" xmlns="http://www.w3.org/2000/svg">
<g clip-path="url(#clip0_81_8)">
<path d="M81.3614 155.723C122.982 155.723 156.723 121.982 156.723 80.3614C156.723 38.7405 122.982 5 81.3614 5C39.7405 5 6 38.7405 6 80.3614C6 121.982 39.7405 155.723 81.3614 155.723Z" fill="#BABABA"/>
<path d="M88.1061 26.2595C88.1061 16.886 80.5074 9.28722 71.1338 9.28722C61.7603 9.28722 54.1615 16.886 54.1615 26.2595V50.293C54.1615 59.6665 61.7603 67.2653 71.1338 67.2653C80.5074 67.2653 88.1061 59.6665 88.1061 50.293V26.2595Z" fill="#7A7A7A"/>
<path d="M52.4106 38.2747C49.6914 38.282 47.0856 39.3654 45.1628 41.2882C43.24 43.211 42.1565 45.8168 42.1493 48.5361V88.3026C42.1573 91.0216 43.241 93.6269 45.1636 95.5495C47.0863 97.4722 49.6916 98.5559 52.4106 98.5639V98.5639C55.1294 98.5551 57.7343 97.4711 59.6567 95.5487C61.5792 93.6262 62.6631 91.0213 62.672 88.3026V48.5422C62.6655 45.8221 61.5826 43.2152 59.6598 41.2912C57.7369 39.3673 55.1307 38.2828 52.4106 38.2747V38.2747Z" fill="#7A7A7A"/>
<path d="M120.343 39.9129C120.343 27.3963 110.196 17.2496 97.6794 17.2496C85.1628 17.2496 75.0161 27.3963 75.0161 39.9129V85.2546C75.0161 97.7712 85.1628 107.918 97.6794 107.918C110.196 107.918 120.343 97.7712 120.343 85.2546V39.9129Z" fill="#7A7A7A"/>
<path d="M42.1492 107.918C47.3153 107.918 51.5032 103.73 51.5032 98.5639C51.5032 93.3978 47.3153 89.2099 42.1492 89.2099C36.9832 89.2099 32.7953 93.3978 32.7953 98.5639C32.7953 103.73 36.9832 107.918 42.1492 107.918Z" fill="#8E8E8E"/>
<path d="M120.342 107.918C125.508 107.918 129.696 103.73 129.696 98.5639C129.696 93.3978 125.508 89.2099 120.342 89.2099C115.176 89.2099 110.988 93.3978 110.988 98.5639C110.988 103.73 115.176 107.918 120.342 107.918Z" fill="#8E8E8E"/>
<path d="M89.3299 121.577H73.8892V149.956H89.3299V121.577Z" fill="#8E8E8E"/>
<path d="M75.366 137.414H87.704C89.9143 137.414 92.034 138.292 93.5969 139.855C95.1598 141.418 96.0379 143.538 96.0379 145.748V164.657H67.0321V145.748C67.0321 143.538 67.9101 141.418 69.473 139.855C71.036 138.292 73.1557 137.414 75.366 137.414V137.414Z" fill="#9A9A9A"/>
<path d="M81.2459 128.233C102.838 128.233 120.342 109.448 120.342 86.2746C120.342 63.1014 102.838 44.3158 81.2459 44.3158C59.6534 44.3158 42.1493 63.1014 42.1493 86.2746C42.1493 109.448 59.6534 128.233 81.2459 128.233Z" fill="#8E8E8E"/>
<path d="M63.4515 88.8202C69.6821 88.8202 74.7329 83.7693 74.7329 77.5388C74.7329 71.3083 69.6821 66.2574 63.4515 66.2574C57.221 66.2574 52.1702 71.3083 52.1702 77.5388C52.1702 83.7693 57.221 88.8202 63.4515 88.8202Z" fill="#ACACAC"/>
<path d="M63.4516 89.9316C61.0006 89.9316 58.6045 89.2047 56.5666 87.843C54.5286 86.4813 52.9402 84.5458 52.0022 82.2813C51.0642 80.0168 50.8188 77.5251 51.297 75.1211C51.7751 72.7171 52.9554 70.509 54.6886 68.7758C56.4218 67.0426 58.6299 65.8623 61.0339 65.3842C63.4379 64.906 65.9296 65.1514 68.1941 66.0894C70.4586 67.0274 72.3941 68.6158 73.7558 70.6537C75.1176 72.6917 75.8444 75.0877 75.8444 77.5388C75.8404 80.8243 74.5334 83.9741 72.2102 86.2974C69.887 88.6206 66.7371 89.9275 63.4516 89.9316V89.9316ZM63.4516 67.3719C61.4408 67.3719 59.4751 67.9681 57.8032 69.0853C56.1312 70.2025 54.8281 71.7903 54.0586 73.6481C53.2891 75.5058 53.0877 77.5501 53.48 79.5223C53.8723 81.4945 54.8406 83.306 56.2625 84.7279C57.6844 86.1498 59.4959 87.1181 61.4681 87.5104C63.4403 87.9027 65.4846 87.7013 67.3423 86.9318C69.2001 86.1623 70.788 84.8592 71.9051 83.1873C73.0223 81.5153 73.6186 79.5496 73.6186 77.5388C73.6153 74.8433 72.5431 72.2592 70.6372 70.3532C68.7312 68.4473 66.1471 67.3751 63.4516 67.3719V67.3719Z" fill="#BABABA"/>
<path d="M98.626 88.8202C104.857 88.8202 109.907 83.7693 109.907 77.5388C109.907 71.3083 104.857 66.2574 98.626 66.2574C92.3955 66.2574 87.3446 71.3083 87.3446 77.5388C87.3446 83.7693 92.3955 88.8202 98.626 88.8202Z" fill="#ACACAC"/>
<path d="M98.6261 89.9316C96.175 89.9316 93.779 89.2047 91.741 87.843C89.703 86.4813 88.1146 84.5458 87.1766 82.2813C86.2386 80.0168 85.9932 77.5251 86.4714 75.1211C86.9496 72.7171 88.1299 70.509 89.863 68.7758C91.5962 67.0426 93.8044 65.8623 96.2083 65.3842C98.6123 64.906 101.104 65.1514 103.369 66.0894C105.633 67.0274 107.569 68.6158 108.93 70.6537C110.292 72.6917 111.019 75.0877 111.019 77.5388C111.015 80.8243 109.708 83.9741 107.385 86.2974C105.061 88.6206 101.912 89.9275 98.6261 89.9316V89.9316ZM98.6261 67.3719C96.6152 67.3719 94.6495 67.9681 92.9776 69.0853C91.3057 70.2025 90.0025 71.7903 89.233 73.6481C88.4635 75.5058 88.2622 77.5501 88.6545 79.5223C89.0468 81.4945 90.0151 83.306 91.4369 84.7279C92.8588 86.1498 94.6704 87.1181 96.6426 87.5104C98.6148 87.9027 100.659 87.7013 102.517 86.9318C104.375 86.1623 105.962 84.8592 107.08 83.1873C108.197 81.5153 108.793 79.5496 108.793 77.5388C108.79 74.8433 107.718 72.2592 105.812 70.3532C103.906 68.4473 101.322 67.3751 98.6261 67.3719V67.3719Z" fill="#BABABA"/>
<path d="M74.7327 78.6532C74.4712 78.6518 74.2185 78.5585 74.0188 78.3895C73.8191 78.2205 73.6853 77.9867 73.6406 77.729C73.596 77.4713 73.6434 77.2061 73.7746 76.9798C73.9058 76.7536 74.1124 76.5806 74.3582 76.4913C78.6941 74.9415 83.1884 74.9384 87.7071 76.4913C87.9759 76.5951 88.1941 76.799 88.3158 77.0601C88.4376 77.3213 88.4534 77.6195 88.3601 77.8921C88.2667 78.1647 88.0714 78.3905 87.8151 78.5222C87.5588 78.6539 87.2614 78.6812 86.9854 78.5984C82.8992 77.1977 79.0108 77.1977 75.1103 78.5984C74.9887 78.6389 74.8608 78.6575 74.7327 78.6532V78.6532Z" fill="#BABABA"/>
<path d="M74.3798 148.455H67.0355V189.482H74.3798V148.455Z" fill="#8E8E8E"/>
<path d="M88.6968 189.479H96.0411V148.452H88.6968V189.479Z" fill="#8E8E8E"/>
</g>
<defs>
<clipPath id="clip0_81_8">
<rect width="151" height="151" fill="white" transform="translate(6 5)"/>
</clipPath>
</defs>
</svg>
