<svg width="162" height="162" viewBox="0 0 162 162" fill="none" xmlns="http://www.w3.org/2000/svg">
<g clip-path="url(#clip0_81_8)">
<path d="M80.9999 156.723C122.421 156.723 156 122.982 156 81.3614C156 39.7405 122.421 6 80.9999 6C39.5785 6 5.99988 39.7405 5.99988 81.3614C5.99988 122.982 39.5785 156.723 80.9999 156.723Z" fill="#F16625"/>
<path d="M90.1816 124.142L73.1634 124.118C71.0323 124.496 69.1017 125.616 67.7103 127.281C66.3189 128.946 65.5556 131.051 65.5543 133.225V162.67H97.6301V133.225C97.629 131.078 96.8855 128.999 95.5267 127.342C94.168 125.685 92.2786 124.554 90.1816 124.142V124.142Z" fill="#262424"/>
<path d="M81.5937 106.363H81.5907C76.8762 106.363 73.0543 110.203 73.0543 114.941V124.276C73.0543 129.014 76.8762 132.854 81.5907 132.854H81.5937C86.3082 132.854 90.1301 129.014 90.1301 124.276V114.941C90.1301 110.203 86.3082 106.363 81.5937 106.363Z" fill="#FFDACD"/>
<path d="M114.381 94.6288C132.489 76.4331 132.489 46.9319 114.381 28.7361C96.2725 10.5403 66.9128 10.5404 48.8043 28.7361C30.6958 46.9319 30.6958 76.433 48.8043 94.6288C66.9128 112.825 96.2725 112.825 114.381 94.6288Z" fill="#AC5B0F"/>
<path d="M61.6183 116.226C67.0395 110.779 67.0395 101.947 61.6183 96.5C56.1971 91.0527 47.4076 91.0527 41.9865 96.5C36.5653 101.947 36.5653 110.779 41.9865 116.226C47.4076 121.674 56.1971 121.674 61.6183 116.226Z" fill="#AC5B0F"/>
<path d="M40.3968 117.331C40.3968 121.03 38.9343 124.578 36.3309 127.194C33.7276 129.81 30.1967 131.28 26.515 131.28C15.3817 131.28 6.51501 117.331 6.51501 117.331C6.51501 117.331 14.6211 103.385 26.515 103.385C30.1962 103.385 33.7266 104.854 36.3299 107.47C38.9331 110.085 40.396 113.632 40.3968 117.331V117.331Z" fill="#AC5B0F"/>
<path d="M123.144 111.619C126.037 104.485 122.627 96.345 115.527 93.438C108.427 90.531 100.326 93.9577 97.4328 101.092C94.5398 108.226 97.9501 116.366 105.05 119.273C112.15 122.18 120.251 118.753 123.144 111.619Z" fill="#AC5B0F"/>
<path d="M121.697 117.331C121.697 121.03 123.159 124.578 125.763 127.194C128.366 129.81 131.897 131.28 135.579 131.28C146.712 131.28 155.579 117.331 155.579 117.331C155.579 117.331 147.473 103.385 135.579 103.385C131.898 103.385 128.367 104.854 125.764 107.47C123.161 110.085 121.698 113.632 121.697 117.331V117.331Z" fill="#AC5B0F"/>
<path d="M49.6011 89.4969C51.3748 85.1077 49.2716 80.1048 44.9035 78.3225C40.5354 76.5403 35.5565 78.6536 33.7828 83.0428C32.009 87.4319 34.1122 92.4349 38.4803 94.2171C42.8485 95.9994 47.8274 93.8861 49.6011 89.4969Z" fill="#FFDACD"/>
<path d="M128.554 88.2102C129.624 83.5966 126.77 78.9849 122.178 77.9095C117.587 76.8342 112.997 79.7026 111.927 84.3161C110.857 88.9297 113.711 93.5414 118.303 94.6168C122.894 95.6921 127.484 92.8237 128.554 88.2102Z" fill="#FFDACD"/>
<path d="M39.7845 73.3625C40.0306 84.3401 44.5434 94.7849 52.3571 102.461C60.1707 110.138 70.6643 114.436 81.5921 114.436C92.5199 114.436 103.014 110.138 110.827 102.461C118.641 94.7849 123.154 84.3401 123.4 73.3625C97.3452 50.7084 69.4734 50.7084 39.7845 73.3625Z" fill="#FFDACD"/>
<path d="M81.5908 31.3519C70.4999 31.3519 59.8633 35.779 52.0208 43.6592C44.1784 51.5394 39.7726 62.2273 39.7726 73.3716H97.6302L101.151 65.6345L104.467 73.3625H123.403C123.4 62.2208 118.994 51.5362 111.154 43.6581C103.313 35.78 92.679 31.3535 81.5908 31.3519V31.3519Z" fill="#AC5B0F"/>
<path d="M123.809 73.7736H104.182L101.151 66.6485L97.906 73.7736H39.3727V73.3625C39.3727 49.9715 58.3121 30.9408 81.5909 30.9408C104.87 30.9408 123.809 49.9715 123.809 73.3625V73.7736ZM104.733 72.9514H122.988C122.767 50.2029 104.282 31.766 81.5909 31.766C58.9 31.766 40.4151 50.2029 40.1969 72.9514H97.3666L101.151 64.6206L104.733 72.9514Z" fill="#AC5B0F"/>
<path d="M62.0363 96.5525C66.5198 96.5525 70.1544 94.963 70.1544 93.0021C70.1544 91.0413 66.5198 89.4518 62.0363 89.4518C57.5527 89.4518 53.9181 91.0413 53.9181 93.0021C53.9181 94.963 57.5527 96.5525 62.0363 96.5525Z" fill="#F9B0A1"/>
<path d="M101.148 96.5525C105.632 96.5525 109.267 94.963 109.267 93.0021C109.267 91.0413 105.632 89.4518 101.148 89.4518C96.6648 89.4518 93.0302 91.0413 93.0302 93.0021C93.0302 94.963 96.6648 96.5525 101.148 96.5525Z" fill="#F9B0A1"/>
<path d="M68.4424 84.9392C68.1161 84.9392 67.8032 84.809 67.5725 84.5771C67.3417 84.3453 67.2121 84.0309 67.2121 83.703C67.1802 82.4107 66.6469 81.1822 65.7261 80.2796C64.8052 79.377 63.5697 78.8717 62.2833 78.8717C60.9969 78.8717 59.7614 79.377 58.8405 80.2796C57.9197 81.1822 57.3864 82.4107 57.3545 83.703C57.3545 84.0309 57.2249 84.3453 56.9942 84.5771C56.7635 84.809 56.4505 84.9392 56.1242 84.9392C55.7979 84.9392 55.485 84.809 55.2543 84.5771C55.0235 84.3453 54.8939 84.0309 54.8939 83.703C54.9331 81.7598 55.7288 79.9094 57.1103 78.5491C58.4918 77.1888 60.349 76.4268 62.2833 76.4268C64.2176 76.4268 66.0748 77.1888 67.4563 78.5491C68.8378 79.9094 69.6335 81.7598 69.6727 83.703C69.6727 84.0309 69.5431 84.3453 69.3124 84.5771C69.0816 84.809 68.7687 84.9392 68.4424 84.9392V84.9392Z" fill="#7E341F"/>
<path d="M107.061 84.9392C106.734 84.9392 106.421 84.809 106.191 84.5771C105.96 84.3453 105.83 84.0309 105.83 83.703C105.798 82.4107 105.265 81.1822 104.344 80.2796C103.423 79.377 102.188 78.8717 100.901 78.8717C99.615 78.8717 98.3796 79.377 97.4587 80.2796C96.5379 81.1822 96.0046 82.4107 95.9727 83.703C95.9727 84.0309 95.8431 84.3453 95.6123 84.5771C95.3816 84.809 95.0687 84.9392 94.7424 84.9392C94.4161 84.9392 94.1032 84.809 93.8724 84.5771C93.6417 84.3453 93.5121 84.0309 93.5121 83.703C93.5512 81.7598 94.347 79.9094 95.7285 78.5491C97.11 77.1888 98.9672 76.4268 100.901 76.4268C102.836 76.4268 104.693 77.1888 106.074 78.5491C107.456 79.9094 108.252 81.7598 108.291 83.703C108.291 84.0309 108.161 84.3453 107.931 84.5771C107.7 84.809 107.387 84.9392 107.061 84.9392Z" fill="#7E341F"/>
<path d="M88.1212 93.3614C88.1212 96.3637 85.2 98.7996 81.5939 98.7996C77.9879 98.7996 75.0697 96.3637 75.0697 93.3614C75.0697 90.3592 88.1212 90.3592 88.1212 93.3614Z" fill="#FFFEF9"/>
<path d="M97.7484 144.093H90.6515V198.155H97.7484V144.093Z" fill="#FFDACD"/>
<path d="M89.8817 132.686L90.0241 144.169L97.7484 144.093L97.6059 132.619C97.5704 131.608 97.1435 130.651 96.4161 129.952C95.6887 129.252 94.7182 128.865 93.7114 128.874C92.7045 128.883 91.7409 129.286 91.0256 129.998C90.3103 130.71 89.8998 131.675 89.8817 132.686V132.686Z" fill="#262424"/>
<path d="M65.4483 198.158H72.5453V144.096H65.4483V198.158Z" fill="#FFDACD"/>
<path d="M73.3149 132.686L73.1755 144.169L65.4513 144.093L65.5907 132.619C65.6262 131.608 66.0531 130.651 66.7805 129.952C67.508 129.252 68.4784 128.865 69.4853 128.874C70.4921 128.883 71.4558 129.286 72.1711 129.998C72.8864 130.71 73.2968 131.675 73.3149 132.686V132.686Z" fill="#262424"/>
</g>
<defs>
<clipPath id="clip0_81_8">
<rect width="150" height="150" fill="white" transform="translate(6 6)"/>
</clipPath>
</defs>
</svg>
