<svg width="162" height="162" viewBox="0 0 162 162" fill="none" xmlns="http://www.w3.org/2000/svg">
<g clip-path="url(#clip0_81_8)">
<path d="M81 156C122.421 156 156 122.421 156 81C156 39.5786 122.421 6 81 6C39.5786 6 6 39.5786 6 81C6 122.421 39.5786 156 81 156Z" fill="#7CE6E6"/>
<path d="M88.1485 123.636H72.7819V151.879H88.1485V123.636Z" fill="#944732"/>
<path d="M74.2516 139.397H86.5304C88.7301 139.397 90.8397 140.271 92.3951 141.826C93.9505 143.382 94.8243 145.491 94.8243 147.691V166.509H65.9576V147.691C65.9576 145.491 66.8315 143.382 68.3869 141.826C69.9423 140.271 72.0519 139.397 74.2516 139.397Z" fill="#FF7E25"/>
<path d="M107.711 89.3875C122.872 74.2269 122.872 49.6466 107.711 34.486C92.5504 19.3254 67.9701 19.3254 52.8095 34.486C37.6489 49.6467 37.6489 74.2269 52.8095 89.3875C67.9701 104.548 92.5504 104.548 107.711 89.3875Z" fill="#262424"/>
<path d="M50.3241 78.5983C52.1554 75.3483 51.0053 71.2291 47.7553 69.3978C44.5053 67.5665 40.3861 68.7166 38.5548 71.9666C36.7236 75.2166 37.8737 79.3358 41.1237 81.1671C44.3737 82.9984 48.4929 81.8483 50.3241 78.5983Z" fill="#262424"/>
<path d="M42.6304 68.522C46.3469 68.1995 49.0982 64.9252 48.7757 61.2087C48.4531 57.4923 45.1789 54.741 41.4624 55.0635C37.7459 55.386 34.9946 58.6603 35.3172 62.3767C35.6397 66.0932 38.9139 68.8445 42.6304 68.522Z" fill="#262424"/>
<path d="M49.1641 53.755C51.9957 51.3264 52.3223 47.0621 49.8937 44.2305C47.465 41.399 43.2008 41.0724 40.3692 43.501C37.5376 45.9297 37.211 50.1939 39.6397 53.0255C42.0683 55.8571 46.3326 56.1837 49.1641 53.755Z" fill="#262424"/>
<path d="M51.5 43.9121C55.2305 43.9121 58.2546 40.888 58.2546 37.1576C58.2546 33.4272 55.2305 30.403 51.5 30.403C47.7696 30.403 44.7455 33.4272 44.7455 37.1576C44.7455 40.888 47.7696 43.9121 51.5 43.9121Z" fill="#262424"/>
<path d="M66.7095 32.66C69.1213 29.8141 68.7694 25.5518 65.9234 23.14C63.0775 20.7282 58.8153 21.0801 56.4035 23.9261C53.9917 26.772 54.3436 31.0342 57.1895 33.446C60.0354 35.8578 64.2977 35.5059 66.7095 32.66Z" fill="#262424"/>
<path d="M81.0033 23.0424C81.0784 24.376 80.7565 25.7018 80.0782 26.8524C79.3999 28.003 78.3957 28.9267 77.1926 29.5067C75.9895 30.0867 74.6414 30.297 73.3188 30.111C71.9961 29.925 70.7584 29.351 69.7619 28.4617C68.7654 27.5723 68.0549 26.4075 67.7203 25.1145C67.3857 23.8214 67.4419 22.4582 67.8819 21.1971C68.3219 19.936 69.1259 18.8337 70.1923 18.0295C71.2587 17.2252 72.5395 16.7552 73.873 16.6788C74.7591 16.628 75.6465 16.7524 76.4846 17.0448C77.3226 17.3372 78.0948 17.7919 78.757 18.3829C79.4192 18.9738 79.9584 19.6896 80.3439 20.4891C80.7293 21.2886 80.9534 22.1563 81.0033 23.0424V23.0424Z" fill="#262424"/>
<path d="M94.557 23.8703C94.6429 20.1409 91.6893 17.0479 87.9598 16.962C84.2304 16.876 81.1374 19.8297 81.0515 23.5591C80.9655 27.2886 83.9192 30.3815 87.6486 30.4675C91.3781 30.5534 94.4711 27.5998 94.557 23.8703Z" fill="#262424"/>
<path d="M106.171 32.3539C108.198 29.2221 107.302 25.0402 104.17 23.0134C101.039 20.9866 96.8566 21.8823 94.8298 25.0141C92.803 28.1459 93.6987 32.3278 96.8305 34.3546C99.9623 36.3814 104.144 35.4857 106.171 32.3539Z" fill="#262424"/>
<path d="M117.343 39.4608C118.57 35.9379 116.709 32.0875 113.186 30.8606C109.663 29.6338 105.812 31.4952 104.585 35.0181C103.359 38.5411 105.22 42.3915 108.743 43.6183C112.266 44.8451 116.116 42.9837 117.343 39.4608Z" fill="#262424"/>
<path d="M123.34 52.6795C125.484 49.6267 124.747 45.4139 121.694 43.27C118.641 41.126 114.429 41.8628 112.285 44.9156C110.141 47.9684 110.877 52.1812 113.93 54.3251C116.983 56.4691 121.196 55.7323 123.34 52.6795Z" fill="#262424"/>
<path d="M120.645 68.9212C124.374 68.8053 127.302 65.6887 127.186 61.9601C127.071 58.2314 123.954 55.3027 120.225 55.4186C116.497 55.5345 113.568 58.6511 113.684 62.3797C113.8 66.1083 116.916 69.037 120.645 68.9212Z" fill="#262424"/>
<path d="M123.173 74.803C123.248 76.1364 122.926 77.4622 122.248 78.6127C121.57 79.7632 120.566 80.6868 119.363 81.2669C118.16 81.8469 116.812 82.0574 115.489 81.8716C114.167 81.6858 112.929 81.1121 111.932 80.2231C110.936 79.334 110.225 78.1695 109.89 76.8767C109.555 75.5839 109.611 74.2208 110.051 72.9597C110.49 71.6986 111.294 70.5961 112.36 69.7915C113.426 68.9869 114.706 68.5164 116.04 68.4394C116.926 68.3886 117.813 68.513 118.652 68.8053C119.49 69.0977 120.262 69.5523 120.925 70.1433C121.587 70.7343 122.127 71.4499 122.512 72.2495C122.898 73.049 123.123 73.9167 123.173 74.803V74.803Z" fill="#262424"/>
<path d="M46.0545 92.0686C51.1294 91.2449 54.5755 86.4631 53.7518 81.3883C52.928 76.3134 48.1462 72.8672 43.0714 73.691C37.9965 74.5148 34.5504 79.2965 35.3741 84.3714C36.1979 89.4462 40.9797 92.8924 46.0545 92.0686Z" fill="#944732"/>
<path d="M122.484 89.4633C126.119 85.8279 126.119 79.9337 122.484 76.2983C118.848 72.6628 112.954 72.6628 109.319 76.2983C105.683 79.9337 105.683 85.8279 109.319 89.4633C112.954 93.0987 118.848 93.0987 122.484 89.4633Z" fill="#944732"/>
<path d="M81.4003 40.606H78.8064C59.9802 40.606 44.7185 55.8677 44.7185 74.6939V96.1757C44.7185 115.002 59.9802 130.264 78.8064 130.264H81.4003C100.227 130.264 115.488 115.002 115.488 96.1757V74.6939C115.488 55.8677 100.227 40.606 81.4003 40.606Z" fill="#944732"/>
<path d="M88.1484 139.395L80.4645 131.711L72.7806 139.395L80.4645 147.079L88.1484 139.395Z" fill="#944732"/>
<path d="M80.1032 52.4909C90.5849 52.4909 99.082 49.0774 99.082 44.8667C99.082 40.6559 90.5849 37.2424 80.1032 37.2424C69.6215 37.2424 61.1244 40.6559 61.1244 44.8667C61.1244 49.0774 69.6215 52.4909 80.1032 52.4909Z" fill="#262424"/>
<path d="M66.8424 79.3697C66.843 80.1425 66.6144 80.8981 66.1854 81.5409C65.7564 82.1837 65.1464 82.6849 64.4325 82.9809C63.7187 83.2769 62.933 83.3545 62.175 83.2039C61.4171 83.0533 60.7208 82.6812 60.1743 82.1347C59.6279 81.5883 59.2558 80.892 59.1052 80.134C58.9546 79.376 59.0322 78.5904 59.3282 77.8765C59.6242 77.1627 60.1253 76.5527 60.7681 76.1237C61.4109 75.6947 62.1666 75.4661 62.9394 75.4667C63.9745 75.4667 64.9673 75.8779 65.6992 76.6098C66.4312 77.3418 66.8424 78.3345 66.8424 79.3697V79.3697Z" fill="#262424"/>
<path d="M100.285 79.3697C100.286 80.1424 100.057 80.8979 99.6281 81.5406C99.1992 82.1834 98.5894 82.6845 97.8757 82.9806C97.162 83.2767 96.3766 83.3545 95.6187 83.2041C94.8608 83.0537 94.1645 82.6819 93.6179 82.1358C93.0713 81.5896 92.699 80.8937 92.5481 80.1359C92.3971 79.3781 92.4743 78.5926 92.7698 77.8786C93.0654 77.1647 93.566 76.5545 94.2084 76.1252C94.8508 75.6958 95.6062 75.4667 96.3788 75.4667C96.8916 75.4663 97.3995 75.5669 97.8734 75.7629C98.3473 75.9589 98.7779 76.2463 99.1407 76.6088C99.5034 76.9712 99.7912 77.4016 99.9875 77.8754C100.184 78.3491 100.285 78.8569 100.285 79.3697Z" fill="#262424"/>
<path d="M66.1305 92.191C75.6032 109.161 84.9184 109.752 94.0729 92.191H66.1305Z" fill="#FFFEF9"/>
<path d="M61.9214 184.042H54.5396V159.603C54.5396 147.809 61.9153 139.573 72.479 139.573V146.955C65.185 146.955 61.9214 153.318 61.9214 159.603V184.042Z" fill="#FF7E25"/>
<path d="M106.552 184.042H99.1699V159.603C99.1699 153.309 95.9062 146.955 88.6123 146.955V139.573C99.1759 139.573 106.552 147.809 106.552 159.603V184.042Z" fill="#FF7E25"/>
</g>
<defs>
<clipPath id="clip0_81_8">
<rect width="150" height="150" fill="white" transform="translate(6 6)"/>
</clipPath>
</defs>
</svg>
